<?xml version="1.0" standalone="no"?>
<!DOCTYPE svg PUBLIC "-//W3C//DTD SVG 20010904//EN"
 "http://www.w3.org/TR/2001/REC-SVG-20010904/DTD/svg10.dtd">
<svg version="1.0" xmlns="http://www.w3.org/2000/svg"
 width="1080.000000pt" height="1081.000000pt" viewBox="0 0 1080.000000 1081.000000"
 preserveAspectRatio="xMidYMid meet">

<g transform="translate(0.000000,1081.000000) scale(0.100000,-0.100000)"
fill="#000000" stroke="none">
<path d="M4575 8743 c-170 -30 -371 -113 -525 -216 -109 -72 -285 -252 -360
-367 -34 -52 -63 -96 -64 -97 -1 -2 -39 4 -85 12 -125 22 -364 37 -476 30
-354 -22 -636 -95 -930 -240 -252 -124 -445 -264 -641 -467 -369 -381 -590
-856 -645 -1387 -16 -156 -6 -452 20 -606 233 -1369 1577 -2227 2915 -1860
537 147 1013 495 1323 966 115 175 229 422 280 604 l20 70 -141 595 c-78 327
-145 601 -149 608 -5 8 -34 12 -83 12 l-75 0 3 53 3 52 427 3 426 2 40 48
c100 121 183 273 237 435 48 143 65 255 65 422 0 83 -6 179 -15 231 -31 177
-112 376 -218 534 -64 96 -251 283 -347 347 -158 106 -357 187 -535 217 -113
20 -359 19 -470 -1z"/>
</g>
</svg>
