<svg width="729" height="230" viewBox="0 0 729 230" fill="none" xmlns="http://www.w3.org/2000/svg">
<g filter="url(#filter0_d_821_24297)">
<path d="M14 29.2412C14 18.1955 22.9543 9.24121 34 9.24121H694.098C705.143 9.24121 714.098 18.1955 714.098 29.2412V190.112C714.098 201.158 705.143 210.112 694.098 210.112H34C22.9543 210.112 14 201.158 14 190.112V29.2412Z" fill="#4A3AFF"/>
</g>
<mask id="mask0_821_24297" style="mask-type:alpha" maskUnits="userSpaceOnUse" x="14" y="9" width="701" height="202">
<path d="M34 9.74121H694.098C704.867 9.74121 713.598 18.4717 713.598 29.2412V190.112C713.598 200.882 704.867 209.612 694.098 209.612H34C23.2304 209.612 14.5 200.882 14.5 190.112V29.2412C14.5 18.4717 23.2304 9.74121 34 9.74121Z" fill="#4A3AFF" stroke="#EFF0F7"/>
</mask>
<g mask="url(#mask0_821_24297)">
<path opacity="0.2" d="M509.201 9.84345C509.201 16.9304 510.491 23.9479 512.997 30.4954C515.503 37.0429 519.176 42.992 523.807 48.0033C528.437 53.0145 533.935 56.9896 539.985 59.7016C546.036 62.4137 552.52 63.8096 559.069 63.8096C565.618 63.8096 572.102 62.4137 578.153 59.7016C584.203 56.9896 589.7 53.0145 594.331 48.0032C598.962 42.992 602.635 37.0428 605.141 30.4954C607.647 23.9479 608.937 16.9304 608.937 9.84343L559.069 9.84345L509.201 9.84345Z" fill="white"/>
<path opacity="0.1" d="M508.752 98.9904C508.752 107.302 507.24 115.532 504.3 123.211C501.361 130.89 497.053 137.868 491.622 143.745C486.191 149.622 479.744 154.284 472.648 157.465C465.552 160.646 457.947 162.283 450.266 162.283C442.586 162.283 434.98 160.646 427.884 157.465C420.788 154.284 414.341 149.622 408.91 143.745C403.479 137.868 399.171 130.89 396.232 123.211C393.293 115.532 391.78 107.302 391.78 98.9903L450.266 98.9904H508.752Z" fill="white"/>
<rect opacity="0.1" x="608.923" y="63.5171" width="108.317" height="100.094" transform="rotate(90 608.923 63.5171)" fill="white"/>
<path opacity="0.07" d="M503.692 217.083L559.725 158.106L608.869 103.264L608.869 217.084L503.692 217.083Z" fill="white"/>
<ellipse opacity="0.07" cx="661.402" cy="166.257" rx="56.7073" ry="52.4013" transform="rotate(90 661.402 166.257)" fill="white"/>
<path opacity="0.1" d="M14.2864 9.12743C26.488 9.12743 38.5701 11.7282 49.843 16.7813C61.1158 21.8343 71.3585 29.2407 79.9864 38.5775C88.6142 47.9143 95.4582 58.9988 100.128 71.1979C104.797 83.397 107.2 96.472 107.2 109.676C107.2 122.881 104.797 135.955 100.128 148.155C95.4582 160.354 88.6142 171.438 79.9863 180.775C71.3585 190.112 61.1158 197.518 49.8429 202.571C38.5701 207.624 26.488 210.225 14.2863 210.225L14.2864 109.676L14.2864 9.12743Z" fill="white"/>
<rect opacity="0.2" x="714.098" y="-3.61084" width="113.819" height="105.178" transform="rotate(90 714.098 -3.61084)" fill="white"/>
<path opacity="0.2" d="M701.746 9.24121L652.303 61.2833L608.937 109.676L608.937 9.2412L701.746 9.24121Z" fill="white"/>
</g>
<defs>
<filter id="filter0_d_821_24297" x="0" y="0.241211" width="728.098" height="228.871" filterUnits="userSpaceOnUse" color-interpolation-filters="sRGB">
<feFlood flood-opacity="0" result="BackgroundImageFix"/>
<feColorMatrix in="SourceAlpha" type="matrix" values="0 0 0 0 0 0 0 0 0 0 0 0 0 0 0 0 0 0 127 0" result="hardAlpha"/>
<feOffset dy="5"/>
<feGaussianBlur stdDeviation="7"/>
<feColorMatrix type="matrix" values="0 0 0 0 0.0323264 0 0 0 0 0.0598209 0 0 0 0 0.204167 0 0 0 0.04 0"/>
<feBlend mode="normal" in2="BackgroundImageFix" result="effect1_dropShadow_821_24297"/>
<feBlend mode="normal" in="SourceGraphic" in2="effect1_dropShadow_821_24297" result="shape"/>
</filter>
</defs>
</svg>
