<svg version="1.1" id="Layer_1" xmlns="http://www.w3.org/2000/svg" xmlns:xlink="http://www.w3.org/1999/xlink" x="0px" y="0px" viewBox="0 0 214.3061 176.9724" enable-background="new 0 0 214.3061 176.9724" xml:space="preserve">
<g>
	<path d="M123.8683,85.2c-0.1489,2.8359-1.2386,5.4045-2.9494,7.4228h76.3871v83.5h11v-83.5h6v-8.6667h-90.4356
		C123.8896,84.3665,123.8903,84.7812,123.8683,85.2z" id="id_101" style="fill: rgb(255, 255, 255);"></path>
	<path d="M42.9202,32.0651h34.2097c0.2354-0.0137,0.4795-0.0205,0.7334-0.0205c1.3679,0,3.3135,0.2252,5.356,0.8924
		c1.637-3.1201,2.5679-6.6689,2.5679-10.437c0-12.4268-10.0723-22.5-22.5-22.5c-12.4258,0-22.5,10.0732-22.5,22.5
		C40.7871,25.9211,41.5543,29.1618,42.9202,32.0651z" id="id_102" style="fill: rgb(255, 255, 255);"></path>
	<path d="M85.333,99.0398V67.8156c0.7131,0.4056,1.4906,0.6909,2.2998,0.8662v2.3569v16.6449l1.7617,0.8053
		c6.873,3.1406,19.1797,3.9209,21.5771,4.0459c0.1416,0.0068,0.2813,0.0107,0.4219,0.0107c4.2256,0,7.7568-3.3125,7.9805-7.5811
		c0.2314-4.4111-3.1582-8.1748-7.5684-8.4082c-3.2568-0.1719-8.0889-0.6924-11.7686-1.459c-0.8135-6.0898-1.8184-11.5176-3-16.1865
		c-5.667-22.4012-15.1987-24.8296-19.8394-24.5459H39.1062c-2.2142-0.0801-5.8553,0.3785-9.7623,3.345
		c-0.6934,0.5265-1.3535,1.1274-1.9982,1.7624h29.321c12.6826,0,23,10.3174,23,23v48.5h9.333c6.7549,0,12.25,5.4951,12.25,12.25
		s-5.4951,12.25-12.25,12.25h-0.4608l-4.5406,25.5031c-0.1832,1.0291-0.2172,2.0479-0.1445,3.0446
		c2.288,1.5798,3.7924,4.2173,3.7924,7.2023c0,0.2579-0.0167,0.5118-0.0387,0.764c1.6835,1.6082,3.8402,2.7581,6.3039,3.197
		c0.7266,0.1289,1.4492,0.1914,2.1621,0.1914c5.8242,0,10.9893-4.1709,12.0459-10.1045l9.2285-51.833
		c0.6348-3.5684-0.3428-7.2354-2.6699-10.0137s-5.7656-4.3838-9.3906-4.3838H85.333z" id="id_103" style="fill: rgb(255, 255, 255);"></path>
	<path d="M20,42.4724c-11,0-20,9-20,20v50c0,11,9,20,20,20h18.0625v32.625c0,0.1267,0.0142,0.2498,0.019,0.375H15.729
		c-3.1626,0-5.75,2.5876-5.75,5.75v0.0002c0,3.1624,2.5874,5.7498,5.75,5.7498h63.167c3.1626,0,5.75-2.5874,5.75-5.7498v-0.0002
		c0-3.1624-2.5874-5.75-5.75-5.75H56.5435c0.0049-0.1252,0.019-0.2483,0.019-0.375v-32.625h0.104H89
		c5.0874,0,9.25-4.1624,9.25-9.2498v-0.0002c0-5.0874-4.1626-9.25-9.25-9.25H76.5903c0.0376-0.4968,0.0762-0.9937,0.0762-1.5v-50
		c0-11-9-20-20-20H20z" id="id_104" style="fill: rgb(255, 255, 255);"></path>
	<path d="M102.4067,62.2055h94.5406V5.8721h-95v54.2407v2.0927H102.4067z M105.9473,9.8718h87v48.334h-87V9.8718z" id="id_105" style="fill: rgb(255, 255, 255);"></path>
	<polygon points="133.364,64.3721 133.364,76.2061 125.6973,76.2061 125.6973,80.3727 173.1973,80.3727 173.1973,76.2061 
		166.1973,76.2061 166.1973,64.3721 	" id="id_106" style="fill: rgb(255, 255, 255);"></polygon>
	<path d="M173.6394,29.1018c-9.54,8.6697-20.5077,5.8709-31.832,1.8564c-7.6124-2.6946-13.9215,1.3768-18.21,5.8732v-3.2502h-3.4163
		V12.9977h-10.75v21.5h4.3333v8.9166h4.8133c-0.6533,1.0668-1.0347,1.8004-1.1082,1.9443l2.6738,1.3613
		c0.0245-0.0485,0.7437-1.4354,2.0276-3.3057h1.4265v-1.9474c3.6295-4.6416,9.8306-10.2974,17.208-7.6805
		c11.5085,4.0795,23.5186,7.1569,34.0381-1.7471h8.6288v-9.833h-9.833V29.1018z M116.7644,36.5813h3.833v3.833h-3.833V36.5813z
		 M180.4724,25.2063v3.833h-3.833v-3.833H180.4724z" id="id_107" style="fill: rgb(255, 255, 255);"></path>
	<rect x="123.9728" y="13.2061" width="43.6666" height="4" id="id_108" style="fill: rgb(255, 255, 255);"></rect>
</g>
</svg>