<svg width="64" height="64" viewBox="0 0 64 64" fill="none" xmlns="http://www.w3.org/2000/svg">
<path d="M40 43H37V45H41C41.2652 45 41.5196 44.8946 41.7071 44.7071C41.8946 44.5196 42 44.2652 42 44V39H40V43Z" fill="url(#paint0_linear_431_5247)" id="id_101"></path>
<path d="M58 21H53V19.12L53.24 19C54.0695 18.5844 54.7669 17.9461 55.2544 17.1567C55.7418 16.3673 56 15.4578 56 14.53V10C56 8.14348 55.2625 6.36301 53.9497 5.05025C52.637 3.7375 50.8565 3 49 3C47.1435 3 45.363 3.7375 44.0503 5.05025C42.7375 6.36301 42 8.14348 42 10V14.53C42 15.4578 42.2582 16.3673 42.7456 17.1567C43.2331 17.9461 43.9305 18.5844 44.76 19L45 19.12V21H40C39.664 21.0064 39.3293 21.0432 39 21.11V20C39 18.1435 38.2625 16.363 36.9497 15.0503C35.637 13.7375 33.8565 13 32 13C30.1435 13 28.363 13.7375 27.0503 15.0503C25.7375 16.363 25 18.1435 25 20V21.11C24.6707 21.0432 24.336 21.0064 24 21H19V19.12L19.24 19C20.0695 18.5844 20.7669 17.9461 21.2544 17.1567C21.7418 16.3673 22 15.4578 22 14.53V10C22 8.14348 21.2625 6.36301 19.9497 5.05025C18.637 3.7375 16.8565 3 15 3C13.1435 3 11.363 3.7375 10.0503 5.05025C8.7375 6.36301 8 8.14348 8 10V14.53C8.00003 15.4578 8.2582 16.3673 8.74564 17.1567C9.23307 17.9461 9.93053 18.5844 10.76 19L11 19.12V21H6C5.34339 21 4.69321 21.1293 4.08658 21.3806C3.47995 21.6319 2.92876 22.0002 2.46447 22.4645C1.52678 23.4021 1 24.6739 1 26V36C1 36.7956 1.31607 37.5587 1.87868 38.1213C2.44129 38.6839 3.20435 39 4 39V50C4 50.2652 4.10536 50.5196 4.29289 50.7071C4.48043 50.8946 4.73478 51 5 51H21V60C21 60.2652 21.1054 60.5196 21.2929 60.7071C21.4804 60.8946 21.7348 61 22 61H42C42.2652 61 42.5196 60.8946 42.7071 60.7071C42.8946 60.5196 43 60.2652 43 60V51H59C59.2652 51 59.5196 50.8946 59.7071 50.7071C59.8946 50.5196 60 50.2652 60 50V39C60.7956 39 61.5587 38.6839 62.1213 38.1213C62.6839 37.5587 63 36.7956 63 36V26C63 24.6739 62.4732 23.4021 61.5355 22.4645C60.5979 21.5268 59.3261 21 58 21V21ZM49 5C50.3261 5 51.5979 5.52678 52.5355 6.46447C53.4732 7.40215 54 8.67392 54 10H44C44 8.67392 44.5268 7.40215 45.4645 6.46447C46.4021 5.52678 47.6739 5 49 5V5ZM44 14.53V12H54V14.53C53.9992 15.0868 53.8436 15.6323 53.5504 16.1056C53.2572 16.5789 52.8381 16.9613 52.34 17.21L49 18.88L45.66 17.21C45.1619 16.9613 44.7428 16.5789 44.4496 16.1056C44.1564 15.6323 44.0008 15.0868 44 14.53V14.53ZM51 20.12V22C51 22.5304 50.7893 23.0391 50.4142 23.4142C50.0391 23.7893 49.5304 24 49 24C48.4696 24 47.9609 23.7893 47.5858 23.4142C47.2107 23.0391 47 22.5304 47 22V20.12L48.55 20.89C48.6896 20.9603 48.8437 20.997 49 20.997C49.1563 20.997 49.3104 20.9603 49.45 20.89L51 20.12ZM32 15C33.3261 15 34.5979 15.5268 35.5355 16.4645C36.4732 17.4021 37 18.6739 37 20H27C27 18.6739 27.5268 17.4021 28.4645 16.4645C29.4021 15.5268 30.6739 15 32 15V15ZM27 22H37V24.53C36.9992 25.0868 36.8436 25.6323 36.5504 26.1056C36.2572 26.5789 35.8381 26.9613 35.34 27.21L32 28.88L28.66 27.21C28.1619 26.9613 27.7428 26.5789 27.4496 26.1056C27.1564 25.6323 27.0008 25.0868 27 24.53V22ZM34 30.12V32C34 32.5304 33.7893 33.0391 33.4142 33.4142C33.0391 33.7893 32.5304 34 32 34C31.4696 34 30.9609 33.7893 30.5858 33.4142C30.2107 33.0391 30 32.5304 30 32V30.12L31.55 30.89C31.6896 30.9603 31.8437 30.997 32 30.997C32.1563 30.997 32.3104 30.9603 32.45 30.89L34 30.12ZM15 5C16.3261 5 17.5979 5.52678 18.5355 6.46447C19.4732 7.40215 20 8.67392 20 10H10C10 8.67392 10.5268 7.40215 11.4645 6.46447C12.4021 5.52678 13.6739 5 15 5V5ZM10 14.53V12H20V14.53C19.9992 15.0868 19.8436 15.6323 19.5504 16.1056C19.2572 16.5789 18.8381 16.9613 18.34 17.21L15 18.88L11.66 17.21C11.1619 16.9613 10.7428 16.5789 10.4496 16.1056C10.1564 15.6323 10.0008 15.0868 10 14.53V14.53ZM17 20.12V22C17 22.5304 16.7893 23.0391 16.4142 23.4142C16.0391 23.7893 15.5304 24 15 24C14.4696 24 13.9609 23.7893 13.5858 23.4142C13.2107 23.0391 13 22.5304 13 22V20.12L14.55 20.89C14.6896 20.9603 14.8437 20.997 15 20.997C15.1563 20.997 15.3104 20.9603 15.45 20.89L17 20.12ZM4 37C3.73478 37 3.48043 36.8946 3.29289 36.7071C3.10536 36.5196 3 36.2652 3 36V26C3 25.2044 3.31607 24.4413 3.87868 23.8787C4.44129 23.3161 5.20435 23 6 23H11.13C11.3104 23.6891 11.6715 24.3175 12.1761 24.8203C12.6806 25.3231 13.3103 25.682 14 25.86V29H16V25.86C16.6897 25.682 17.3194 25.3231 17.8239 24.8203C18.3285 24.3175 18.6896 23.6891 18.87 23H24C24.3427 23.0056 24.6815 23.0733 25 23.2V24.53C25 25.4578 25.2582 26.3673 25.7456 27.1567C26.2331 27.9461 26.9305 28.5844 27.76 29L28 29.12V31H25V29H23V31C21.6739 31 20.4021 31.5268 19.4645 32.4645C18.5268 33.4021 18 34.6739 18 36C18 35.2044 17.6839 34.4413 17.1213 33.8787C16.5587 33.3161 15.7956 33 15 33H7V29H5V34C5 34.2652 5.10536 34.5196 5.29289 34.7071C5.48043 34.8946 5.73478 35 6 35H12V37H4ZM16 36V37H14V35H15C15.2652 35 15.5196 35.1054 15.7071 35.2929C15.8946 35.4804 16 35.7348 16 36ZM6 49V39H18V46C18 46.7956 18.3161 47.5587 18.8787 48.1213C19.4413 48.6839 20.2044 49 21 49H6ZM41 59H23V49H41V59ZM31 47V45H32C32.2652 45 32.5196 45.1054 32.7071 45.2929C32.8946 45.4804 33 45.7348 33 46V47H31ZM35 47V46C35 45.2044 34.6839 44.4413 34.1213 43.8787C33.5587 43.3161 32.7956 43 32 43H24V39H22V44C22 44.2652 22.1054 44.5196 22.2929 44.7071C22.4804 44.8946 22.7348 45 23 45H29V47H21C20.7348 47 20.4804 46.8946 20.2929 46.7071C20.1054 46.5196 20 46.2652 20 46V36C20 35.2044 20.3161 34.4413 20.8787 33.8787C21.4413 33.3161 22.2044 33 23 33H28.13C28.3104 33.6891 28.6715 34.3175 29.1761 34.8203C29.6806 35.3231 30.3103 35.682 31 35.86V39H33V35.86C33.6897 35.682 34.3194 35.3231 34.8239 34.8203C35.3285 34.3175 35.6896 33.6891 35.87 33H41C41.7956 33 42.5587 33.3161 43.1213 33.8787C43.6839 34.4413 44 35.2044 44 36V46C44 46.2652 43.8946 46.5196 43.7071 46.7071C43.5196 46.8946 43.2652 47 43 47H35ZM58 49H43C43.7956 49 44.5587 48.6839 45.1213 48.1213C45.6839 47.5587 46 46.7956 46 46V39H58V49ZM45.9 35H49C49.2652 35 49.5196 35.1054 49.7071 35.2929C49.8946 35.4804 50 35.7348 50 36V37H46V36C45.9974 35.6643 45.964 35.3296 45.9 35V35ZM61 36C61 36.2652 60.8946 36.5196 60.7071 36.7071C60.5196 36.8946 60.2652 37 60 37H52V36C52 35.2044 51.6839 34.4413 51.1213 33.8787C50.5587 33.3161 49.7956 33 49 33H45C44.5343 32.379 43.9303 31.875 43.2361 31.5279C42.5418 31.1807 41.7762 31 41 31H36V29.12L36.24 29C37.0695 28.5844 37.7669 27.9461 38.2544 27.1567C38.7418 26.3673 39 25.4578 39 24.53V23.2C39.3185 23.0733 39.6573 23.0056 40 23H45.13C45.3104 23.6891 45.6715 24.3175 46.1761 24.8203C46.6806 25.3231 47.3103 25.682 48 25.86V29H50V25.86C50.6897 25.682 51.3194 25.3231 51.8239 24.8203C52.3285 24.3175 52.6896 23.6891 52.87 23H58C58.7956 23 59.5587 23.3161 60.1213 23.8787C60.6839 24.4413 61 25.2044 61 26V36Z" fill="url(#paint1_linear_431_5247)" id="id_102"></path>
<path d="M57 33H54V35H58C58.2652 35 58.5196 34.8946 58.7071 34.7071C58.8946 34.5196 59 34.2652 59 34V29H57V33Z" fill="url(#paint2_linear_431_5247)" id="id_103"></path>
<defs>
<linearGradient id="paint0_linear_431_5247" x1="37" y1="42" x2="42" y2="42" gradientUnits="userSpaceOnUse">
<stop stop-color="#ffffff" id="id_104"></stop>
<stop offset="0.04" stop-color="#ffffff" id="id_105"></stop>
<stop offset="0.05" stop-color="#ffffff" id="id_106"></stop>
<stop offset="0.1" stop-color="#ffffff" id="id_107"></stop>
<stop offset="0.14" stop-color="#ffffff" id="id_108"></stop>
<stop offset="0.18" stop-color="#ffffff" id="id_109"></stop>
<stop offset="0.21" stop-color="#ffffff" id="id_110"></stop>
<stop offset="0.34" stop-color="#ffffff" id="id_111"></stop>
<stop offset="0.56" stop-color="#ffffff" id="id_112"></stop>
<stop offset="0.65" stop-color="#ffffff" id="id_113"></stop>
<stop offset="0.73" stop-color="#ffffff" id="id_114"></stop>
<stop offset="0.8" stop-color="#ffffff" id="id_115"></stop>
<stop offset="0.87" stop-color="#ffffff" id="id_116"></stop>
<stop offset="0.94" stop-color="#ffffff" id="id_117"></stop>
</linearGradient>
<linearGradient id="paint1_linear_431_5247" x1="63" y1="1859" x2="3907" y2="1859" gradientUnits="userSpaceOnUse">
<stop stop-color="#ffffff" id="id_118"></stop>
<stop offset="0.04" stop-color="#ffffff" id="id_119"></stop>
<stop offset="0.05" stop-color="#ffffff" id="id_120"></stop>
<stop offset="0.1" stop-color="#ffffff" id="id_121"></stop>
<stop offset="0.14" stop-color="#ffffff" id="id_122"></stop>
<stop offset="0.18" stop-color="#ffffff" id="id_123"></stop>
<stop offset="0.21" stop-color="#ffffff" id="id_124"></stop>
<stop offset="0.34" stop-color="#ffffff" id="id_125"></stop>
<stop offset="0.56" stop-color="#ffffff" id="id_126"></stop>
<stop offset="0.65" stop-color="#ffffff" id="id_127"></stop>
<stop offset="0.73" stop-color="#ffffff" id="id_128"></stop>
<stop offset="0.8" stop-color="#ffffff" id="id_129"></stop>
<stop offset="0.87" stop-color="#ffffff" id="id_130"></stop>
<stop offset="0.94" stop-color="#ffffff" id="id_131"></stop>
</linearGradient>
<linearGradient id="paint2_linear_431_5247" x1="324" y1="221" x2="349" y2="221" gradientUnits="userSpaceOnUse">
<stop stop-color="#ffffff" id="id_132"></stop>
<stop offset="0.04" stop-color="#ffffff" id="id_133"></stop>
<stop offset="0.05" stop-color="#ffffff" id="id_134"></stop>
<stop offset="0.1" stop-color="#ffffff" id="id_135"></stop>
<stop offset="0.14" stop-color="#ffffff" id="id_136"></stop>
<stop offset="0.18" stop-color="#ffffff" id="id_137"></stop>
<stop offset="0.21" stop-color="#ffffff" id="id_138"></stop>
<stop offset="0.34" stop-color="#ffffff" id="id_139"></stop>
<stop offset="0.56" stop-color="#ffffff" id="id_140"></stop>
<stop offset="0.65" stop-color="#ffffff" id="id_141"></stop>
<stop offset="0.73" stop-color="#ffffff" id="id_142"></stop>
<stop offset="0.8" stop-color="#ffffff" id="id_143"></stop>
<stop offset="0.87" stop-color="#ffffff" id="id_144"></stop>
<stop offset="0.94" stop-color="#ffffff" id="id_145"></stop>
</linearGradient>
</defs>
</svg>