<svg xmlns="http://www.w3.org/2000/svg" viewBox="0 0 64 64"><g id="Global-2" data-name="Global"><path d="M59,2a3,3,0,0,0-3,3V35a1,1,0,0,0,.03.243l2,8a1,1,0,0,0,1.94,0l2-8A1,1,0,0,0,62,35V5A3,3,0,0,0,59,2Zm0,2a1,1,0,0,1,1,1V34H58V5A1,1,0,0,1,59,4Zm0,34.877L58.281,36h1.438Z" id="id_108" style="fill: rgb(255, 255, 255);"></path><path d="M54,44.059V29a1,1,0,0,0-1-1H49.655A18.778,18.778,0,0,0,51,21a19,19,0,0,0-38,0,18.778,18.778,0,0,0,1.345,7H11a9,9,0,0,0-1,17.941V61a1,1,0,0,0,1,1H53a9,9,0,0,0,1-17.941ZM39.451,28a43.224,43.224,0,0,0,.527-6h8.965a16.729,16.729,0,0,1-1.481,6ZM26.576,28a40.843,40.843,0,0,1-.554-6H37.978a40.843,40.843,0,0,1-.554,6ZM32,4c1.783,0,3.693,2.758,4.867,7.291A17,17,0,0,1,32,12a17,17,0,0,1-4.867-.709C28.307,6.758,30.217,4,32,4Zm-6.761,6.586A16.882,16.882,0,0,1,21.074,8a16.957,16.957,0,0,1,6.843-3.479A18.225,18.225,0,0,0,25.239,10.586Zm10.844-6.07A16.957,16.957,0,0,1,42.926,8a16.882,16.882,0,0,1-4.165,2.591A18.225,18.225,0,0,0,36.083,4.516ZM32,14a19.027,19.027,0,0,0,5.3-.752A40.672,40.672,0,0,1,37.98,20H26.02a40.672,40.672,0,0,1,.682-6.752A19.027,19.027,0,0,0,32,14Zm16.949,6H39.98a42.835,42.835,0,0,0-.763-7.425,18.9,18.9,0,0,0,5.159-3.193A16.91,16.91,0,0,1,48.949,20ZM19.624,9.382a18.9,18.9,0,0,0,5.159,3.193A42.835,42.835,0,0,0,24.02,20H15.051A16.91,16.91,0,0,1,19.624,9.382ZM15.057,22h8.965a43.224,43.224,0,0,0,.527,6H16.538A16.729,16.729,0,0,1,15.057,22ZM4,37a7.008,7.008,0,0,1,7-7H52V44H11A7.008,7.008,0,0,1,4,37ZM53,60H12V46H53a7,7,0,0,1,0,14Z" id="id_109" style="fill: rgb(255, 255, 255);"></path><rect x="16" y="52" width="40" height="2" id="id_110" style="fill: rgb(255, 255, 255);"></rect><rect x="12" y="36" width="36" height="2" id="id_111" style="fill: rgb(255, 255, 255);"></rect><rect x="16" y="48" width="38" height="2" id="id_112" style="fill: rgb(255, 255, 255);"></rect><rect x="16" y="56" width="38" height="2" id="id_113" style="fill: rgb(255, 255, 255);"></rect><rect x="8" y="36" width="2" height="2" id="id_114" style="fill: rgb(255, 255, 255);"></rect></g></svg>