<svg width="384" height="550" viewBox="0 0 384 550" fill="none" xmlns="http://www.w3.org/2000/svg">
<g clip-path="url(#clip0_102_2)">
<rect width="384" height="550" fill="white"/>
<path opacity="0.563035" fill-rule="evenodd" clip-rule="evenodd" d="M-95.998 4.84769H443.564V491.519C443.564 491.519 490.572 599.242 325.842 462.569C161.112 325.895 91.7351 429.23 22.1334 366.451C-47.4684 303.672 111.615 69.5084 32.7611 24.5642C-46.0926 -20.38 -95.998 4.84769 -95.998 4.84769Z" fill="#FFE946" fill-opacity="0.3"/>
<path fill-rule="evenodd" clip-rule="evenodd" d="M-56.8047 -3.16912H408.694V417.014C408.694 417.014 449.249 510.02 307.131 392.018C165.012 274.017 105.159 363.235 45.1113 309.032C-14.9365 254.83 122.31 52.6578 54.2802 13.8538C-13.7496 -24.9503 -56.8047 -3.16912 -56.8047 -3.16912Z" fill="url(#paint0_angular_102_2)"/>
<g opacity="0.248814">
<ellipse cx="268.471" cy="192.966" rx="7.87091" ry="8.13309" stroke="white" stroke-width="8"/>
<ellipse cx="194.582" cy="111.636" rx="7.87091" ry="8.13309" stroke="white" stroke-width="8"/>
<ellipse cx="360.031" cy="21.7287" rx="12.6898" ry="13.1125" stroke="white" stroke-width="8"/>
<ellipse cx="152.816" cy="203.202" rx="4.65829" ry="4.81346" stroke="white" stroke-width="8"/>
<rect x="5.14401" y="2.07619" width="17.9211" height="18.8999" transform="matrix(0.912688 -0.408657 0.373316 0.927704 285.028 108.401)" stroke="white" stroke-width="8"/>
<rect x="5.14401" y="2.07619" width="8.20066" height="8.81244" transform="matrix(0.912688 -0.408657 0.373316 0.927704 276.89 305.95)" stroke="white" stroke-width="8"/>
<rect x="3.12512" y="1.26134" width="4.8602" height="5.22726" transform="matrix(0.912688 -0.408657 0.373316 0.927704 194.489 245.862)" stroke="white" stroke-width="4.8602"/>
<path d="M108.921 148.659L108.09 145.386L108.676 145.22L109.507 148.493L112.596 147.62L112.754 148.239L109.665 149.112L110.492 152.37L109.906 152.536L109.078 149.278L105.975 150.155L105.818 149.536L108.921 148.659Z" fill="white"/>
<path d="M285.614 277.434L284.782 274.16L285.368 273.995L286.2 277.268L289.289 276.395L289.446 277.013L286.357 277.886L287.185 281.145L286.598 281.31L285.771 278.052L282.667 278.929L282.51 278.311L285.614 277.434Z" fill="white"/>
<path d="M198.54 182.346L196.948 176.075L198.071 175.758L199.664 182.028L205.581 180.356L205.882 181.541L199.965 183.213L201.55 189.455L200.427 189.772L198.841 183.53L192.897 185.211L192.596 184.026L198.54 182.346Z" fill="white"/>
<path d="M138.942 17.8881L136.968 10.1191L138.36 9.72579L140.334 17.4948L147.665 15.4227L148.038 16.8906L140.706 18.9627L142.671 26.6959L141.279 27.0892L139.315 19.356L131.95 21.4377L131.577 19.9698L138.942 17.8881Z" fill="white"/>
<path d="M377.784 178.553L374.669 166.288L376.865 165.667L379.981 177.932L391.554 174.66L392.143 176.978L380.569 180.249L383.671 192.457L381.474 193.078L378.373 180.87L366.746 184.156L366.157 181.839L377.784 178.553Z" fill="white"/>
</g>
</g>
<defs>
<radialGradient id="paint0_angular_102_2" cx="0" cy="0" r="1" gradientUnits="userSpaceOnUse" gradientTransform="translate(44.517 -281.435) rotate(126.621) scale(385.118 386.438)">
<stop offset="0.66" stop-color="#2563EB"/>
<stop offset="1" stop-color="#153885"/>
</radialGradient>
<clipPath id="clip0_102_2">
<rect width="384" height="550" fill="white"/>
</clipPath>
</defs>
</svg>
