<svg width="145" height="40" viewBox="0 0 145 40" fill="none" xmlns="http://www.w3.org/2000/svg">
<path d="M4.66211 37V2.08789H20.2871C27.416 2.08789 30.9805 5.36751 30.9805 11.9268C30.9805 19.0394 26.1058 23.3444 16.3564 24.8418L15.4287 19.0801C21.2881 18.0221 24.2178 15.7028 24.2178 12.1221C24.2178 9.22493 22.7692 7.77637 19.8721 7.77637H11.1318V37H4.66211ZM39.916 24.085C39.916 29.4398 41.9912 32.1172 46.1416 32.1172C50.292 32.1172 52.3672 29.4398 52.3672 24.085C52.3672 18.8604 50.292 16.248 46.1416 16.248C41.9912 16.248 39.916 18.8604 39.916 24.085ZM33.4463 24.1826C33.4463 15.5889 37.6781 11.292 46.1416 11.292C54.6051 11.292 58.8369 15.5889 58.8369 24.1826C58.8369 32.7601 54.6051 37.0488 46.1416 37.0488C37.7106 37.0488 33.4788 32.7601 33.4463 24.1826ZM61.5225 11.3652H68.041L71.3613 29.2119L77.2939 11.3652H82.8359L89.2324 29.2119L92.1133 11.3652H98.8516L92.1621 37H86.083L80.0527 18.8115L73.9492 37H67.7725L61.5225 11.3652ZM113.598 11.3652C121.378 11.3652 125.268 15.3366 125.268 23.2793C125.268 24.3372 125.194 25.3952 125.048 26.4531H108.031C108.031 30.0664 110.684 31.873 115.99 31.873C118.578 31.873 121.166 31.6289 123.754 31.1406V36.2676C121.492 36.7559 118.741 37 115.502 37C106.208 37 101.562 32.6299 101.562 23.8896C101.562 15.54 105.574 11.3652 113.598 11.3652ZM108.031 21.9609H118.969V21.7656C118.969 18.2174 117.178 16.4434 113.598 16.4434C110.18 16.4434 108.324 18.2826 108.031 21.9609ZM130.126 37V11.3652H135.131L135.937 14.6367C138.183 12.4557 140.559 11.3652 143.065 11.3652V16.5898C140.657 16.5898 138.5 17.5908 136.596 19.5928V37H130.126Z" fill="white"/>
</svg>
